<?xml version="1.0" encoding="UTF-8"?><svg id="Layer_2" xmlns="http://www.w3.org/2000/svg" viewBox="0 0 408 164.23"><defs><style>.cls-1{fill:#fff;}</style></defs><g id="Smaller_white"><path class="cls-1" d="m93.52,162.85c.26-12.46.52-25.16.52-37.62,0-5.77-.26-33.7-.26-40.16h-5.49c-6.53-.23-13.32-.23-19.85-.23-15.93,0-21.68.23-39.18.69v7.16c0,18.93,1.31,60.24,1.57,69.71l-1.57,1.38c-11.49,0-14.11,0-26.38.46l-1.57-1.38c.26-14.77.52-29.55.52-44.32C1.83,79.75,1.83,40.98,0,1.97L1.57.81C13.58.81,16.46.81,27.95.12l1.57,1.38c0,9.23-.26,54.7-.26,64.86,13.06.23,47.54.23,64.52-.46-.52-31.16-.78-36.47-1.83-63.94l1.57-1.15c10.71,0,14.11,0,26.64-.69l1.57,1.38c-.26,7.85-.26,22.39-.26,40.39,0,40.16.26,80.33,1.83,120.49l-1.57,1.38c-11.76,0-14.37-.23-26.64.46l-1.57-1.38Z"/><path class="cls-1" d="m171.51,163.42c-11.23,0-13.84,0-25.86.46l-1.57-1.38c.26-12,.52-23.77.52-46.16,0-36.24,0-78.71-2.09-114.49l1.57-1.38c12.02,0,15.15-.23,25.86-.46l1.57,1.15c-.26,18-.26,24.01-.52,72.48l29.78-37.85c3.92-5.31,8.1-10.62,12.28-15.7,9.14-11.77,9.66-12.23,13.84-18.7l2.09-.92h10.71c5.22,0,10.19,0,15.93-.23l.78,1.38c-5.75,6.46-7.84,8.77-33.7,39.47l-26.12,31.62,15.15,21.24c17.24,22.85,34.48,45.7,53.29,67.63l-.78,1.38c-4.7,0-9.4.23-14.11.23-5.75.23-11.49.46-16.98.69l-2.09-.92c-5.49-8.77-7.31-11.31-24.03-33.01-4.44-6-8.88-12-13.32-18l-22.73-30.01c.52,32.08,1.04,55.63,2.09,80.09l-1.57,1.38Z"/><path class="cls-1" d="m302.2,31.74l1.31,58.4c.78,38.55,1.04,54.24,2.09,72.25l-1.57,1.38c-10.19,0-12.02,0-21.16.46l-1.83-1.38c0-2.31.26-4.62.26-6.93.26-11.31.26-22.39.26-33.7,0-39.47-.52-80.56-2.09-120.03l1.57-1.38c14.11,0,17.24,0,29.26-.46l1.83,1.15c11.23,20.08,22.73,39.93,34.22,60.01l39.44,69.71-1.57-60.94c-.52-38.78-1.04-54.94-1.83-68.09l1.57-1.38c10.19,0,11.49-.23,21.16-.46l1.57,1.15c-.26,2.31-.26,4.39-.26,6.46-.26,13.16-.26,26.54-.26,39.93,0,25.16.52,75.94,1.83,114.49l-1.57,1.38c-14.11-.23-17.24,0-28.47.46l-2.09-1.15c-6.53-11.77-15.15-26.77-22.73-40.39l-50.94-90.94Z"/></g></svg>